<svg xmlns="http://www.w3.org/2000/svg" xmlns:xlink="http://www.w3.org/1999/xlink" width="40" height="40" viewBox="0 0 40 40">
  <defs>
    <clipPath id="clip-path">
      <rect id="Rectangle_8" data-name="Rectangle 8" width="40" height="40" fill="#bedbbb"/>
    </clipPath>
  </defs>
  <g id="Group_7" data-name="Group 7" transform="translate(0 0.446)">
    <g id="Group_6" data-name="Group 6" transform="translate(0 -0.446)" clip-path="url(#clip-path)">
      <path id="Path_5" data-name="Path 5" d="M39.24,36.378a1.165,1.165,0,0,0-1.615.323,1.636,1.636,0,0,1-2.6.158l2.29-4.748a1.165,1.165,0,0,0-1.049-1.671H18.715V27.955H33.857a1.165,1.165,0,0,0,1.156-1.309l-.307-2.455C33.648,15.725,27.038,6.8,18.715,5.026V1.165A1.168,1.168,0,0,0,17.267.035L7.949,2.365a1.165,1.165,0,0,0,0,2.26l8.436,2.109V7.82L4.914,26.173A1.165,1.165,0,0,0,5.9,27.955H16.385V30.44H3.495A1.165,1.165,0,0,0,2.44,32.1l1.332,2.844c-.079,0-.158-.007-.238-.007A3.993,3.993,0,0,0,.2,36.7a1.165,1.165,0,1,0,1.938,1.292,1.647,1.647,0,0,1,1.4-.728,1.647,1.647,0,0,1,1.4.728,3.965,3.965,0,0,0,6.6,0,1.635,1.635,0,0,1,2.721,0,3.965,3.965,0,0,0,6.6,0,1.635,1.635,0,0,1,2.721,0,3.964,3.964,0,0,0,6.6,0,1.709,1.709,0,0,1,2.8,0,3.965,3.965,0,0,0,6.6,0,1.165,1.165,0,0,0-.323-1.615" transform="translate(0 0.241)" fill="#bedbbb"/>
    </g>
  </g>
</svg>
