<svg id="Layer_1" data-name="Layer 1" xmlns="http://www.w3.org/2000/svg" viewBox="0 0 100 100"><defs><style>.cls-1{fill:#333;}</style></defs><path class="cls-1" d="M35.29,1.15c4.57.79,8.85,2.56,13.27,3.87C54,6.64,59.42,8.4,64.85,10.08c.63.2,1.3.29,2,.43a1.29,1.29,0,0,1,.84.8,4.7,4.7,0,0,1,.15,1.4c0,.6,0,1.21,0,1.81-.09,23.55.21,47.09.16,70.63,0,3.76.58,7.51.37,11.28-.06,1,.09,2.21-1.12,2.82-2.35.22-4.49-.66-6.66-1.33-8.13-2.51-16.25-5.08-24.38-7.61-1.09-.33-2.21-.53-3.32-.79-1.33-.75-1.08-2.07-1.08-3.23,0-7.8,0-15.59,0-23.38,0-7-.06-14,0-21-.1-12.75-.05-25.5,0-38.25C31.77.93,32.26.65,35.29,1.15Z"/><path d="M100,76.29l-.12-25.84h0c0-.94.06-1.87.06-2.81L100,17.31c0-3.1,0-6.19-.06-9.29a5.63,5.63,0,0,0-.38-2.36c-1.3-2.91-4.18-4.08-7.62-3q-10.62,3.48-21.22,7a12.3,12.3,0,0,1-3.92.77l.42.34h0q0,37.8,0,75.61c0,.87.18,1.74.21,2.59.15,3.4.57,6.82-.23,10.2a6.14,6.14,0,0,0,2.59-.19c8.83-2.47,17.47-5.5,26.09-8.6A6,6,0,0,0,100,84.35C99.93,81.66,100,79,100,76.29Z"/><path d="M32.48,87q0-22.5,0-45,0-19,0-38c0-2.82,0-2.82,2.81-2.84-2.56-1-5.05-.19-7.43.57-7.61,2.41-15.16,5-22.72,7.53-3.47,1.17-5,3.27-5,6.89Q0,24.4,0,32.66c0,3.37.11,6.74.16,10.1h0q0,3.52-.05,7Q0,63,0,76.29L.09,91.41c0,5.07,3.36,7.45,8.22,5.84s9.91-3.39,14.9-5c3.19-1,6.22-2.58,9.64-2.78A4.23,4.23,0,0,1,32.48,87Z"/></svg>