<svg xmlns="http://www.w3.org/2000/svg" width="40.571" height="29.952" viewBox="0 0 40.571 29.952">
  <g id="quad" transform="translate(0 -67.005)">
    <path id="Path_6" data-name="Path 6" d="M356.511,314.329a5.177,5.177,0,1,0,5.177,5.177A5.183,5.183,0,0,0,356.511,314.329Z" transform="translate(-323.494 -227.726)" fill="#bedbbb"/>
    <path id="Path_7" data-name="Path 7" d="M35.177,314.329a5.177,5.177,0,1,0,5.177,5.177A5.183,5.183,0,0,0,35.177,314.329Z" transform="translate(-27.623 -227.726)" fill="#bedbbb"/>
    <path id="Path_8" data-name="Path 8" d="M184.4,347.129h10.354a7.514,7.514,0,0,1,.539-2.8H183.861A7.514,7.514,0,0,1,184.4,347.129Z" transform="translate(-169.292 -255.349)" fill="#bedbbb"/>
    <path id="Path_9" data-name="Path 9" d="M246.9,78.044,229.714,67.189a1.188,1.188,0,0,0-.635-.184h-2.546a1.189,1.189,0,1,0,0,2.377h2.2l3.6,2.273-5.622,6.133-2.024-.27V86.6h9.716a7.541,7.541,0,0,1,10.557-.426,4.375,4.375,0,0,0,2.493-3.945V79.049A1.189,1.189,0,0,0,246.9,78.044Z" transform="translate(-206.885)" fill="#bedbbb"/>
    <path id="Path_10" data-name="Path 10" d="M15.427,178.315,4.5,176.858a4.329,4.329,0,0,0-.57-.038A3.913,3.913,0,0,0,0,180.8v2.546a4.375,4.375,0,0,0,2.493,3.945,7.541,7.541,0,0,1,10.557.426h2.377Z" transform="translate(0 -101.113)" fill="#bedbbb"/>
  </g>
</svg>
