<?xml version="1.0" encoding="utf-8"?>

<svg version="1.1" id="Layer_1" xmlns="http://www.w3.org/2000/svg" xmlns:xlink="http://www.w3.org/1999/xlink" x="0px" y="0px"
	 viewBox="0 0 216 272" width="216" height="272" enable-background="new 0 0 216 272" xml:space="preserve">
<path fill="#FFFFFF" d="M43,112.3H20.2l1.2-4.6v-31l-1.2-4.6H43l8.2,8v24.1L43,112.3z M41.9,83.4l-1.5-2.9L37.5,79H31l-0.6,0.6V104
	l0.9,0.9h6.1l2.9-1.4l1.5-2.9V83.4z"/>
<polygon fill="#FFFFFF" points="92,73.5 92,116.8 82.8,116.8 67.5,86.8 66.1,83.3 66.4,86.8 66.4,111.2 67.8,116.8 55.7,116.8 
	57.2,111.2 57.2,73.5 55.4,67.9 69.3,67.9 81.7,92.3 83.1,95.8 82.8,92.3 82.8,73.5 81.3,67.9 93.4,67.9 "/>
<path fill="#FFFFFF" d="M117.7,112.3l-5-14.9l-1.2-0.6h-4.4l-0.6,0.6v10.3l1.2,4.6H96.7l1.2-4.6v-31l-1.2-4.6h24l7,6.9v9.8l-6.4,6.3
	l4.4,11.8l3.2,5.5H117.7z M118.3,82.8l-1.2-2.3l-2.9-1.4h-7l-0.6,0.6v9.8l0.6,0.6h7l2.9-1.4l1.2-2.3V82.8z"/>
<path fill="#FFFFFF" d="M102.3,198.2c-0.3,0.6-0.1,3-0.1,3s2.4-0.6,2.3-1.5c-0.1-0.9,0.3-3,0.3-3S102.9,197.1,102.3,198.2z
	 M78.4,201.1c0,0,0.2-2.4-0.1-3c-0.6-1.1-2.4-1.6-2.4-1.6s0.3,2.2,0.3,3C76,200.4,78.4,201.1,78.4,201.1z M1,149.2
	c0,0,33.5-8.1,39.1-4.9l23.7,17.6l-5.9-10.7l10.7-4.9l23.7,3.3l19.7-15.4l1.9-2.8l12.3-1.1l-11.9-3l-23.9,15.1l-40.7,4.9l-9.2-13.2
	l-6.2,1.9L1,149.2z M82.9,46.4l1.1,3.1h4.1l-5.7-15.2h-4.6l-5.7,15.2h4l1.1-3.1H82.9z M80.1,38.2l1.9,5.4h-3.8L80.1,38.2z
	 M65.5,49.5V37.2h4.8v-2.9H56.6v2.9h4.8v12.3H65.5z M96.2,175.2c0,0,1,4.3-0.4,7.6c-0.1,0.3-0.3,0.6-0.5,0.9
	c-1-11.4-6.1-19.7-6.4-20.5l-1.7,4.6c0.7,1.8,1.3,4,1.5,6.5c0.6,5.9-0.6,10.9-2.7,11.2c-1.7,0.2-3.4-2.7-4.4-6.9
	c-1.4,2.2-3.5,5.7-3.6,6.2c-0.1,0.5,4.9,5.1,8.5,8.4l-5.4-3.1l-2.8,1.2l0.4,3.5l8.7,1l-11.5,0l3.5,1.3l0.2,0.6l0.1,1.6l-0.3,2.3
	l10.9-4.7l0,0.1l11,4.7v-3.5l-3-1.1l3,0.1l3.5-1.3l-11.5,0l8.2-1l1.1-3.7l-3-0.9l-6.8,3.9l-0.5,0.3c3.1-3.1,8.6-8.9,8.5-10.5
	C100.7,181.7,96.2,175.2,96.2,175.2z M39.6,34.3V44c0,1.9,0.6,3.3,1.7,4.3c1.2,1,2.9,1.5,5.2,1.5c2.3,0,4-0.5,5.2-1.5
	c1.2-1,1.8-2.4,1.8-4.3v-9.7h-4v9.5c0,1.1-0.2,1.9-0.7,2.4c-0.5,0.5-1.2,0.7-2.2,0.7c-1,0-1.8-0.3-2.2-0.8c-0.5-0.5-0.7-1.3-0.7-2.4
	v-9.5H39.6z M91.5,34.3v15.2h4v-6.7h5.9v6.7h4V34.3h-4v5.6h-5.9v-5.6H91.5z M88.8,163.2L88.8,163.2
	C88.8,163.1,88.8,163.2,88.8,163.2z M112.2,215.2L112.2,215.2l-0.1-0.2L112.2,215.2z M207.4,44.6h-73L126.3,1L9.4,8l103.9,2.6
	l16.9,44.6l65.2,0.3l-6.4,53.8l-14.2-13.1l-13.6,14.5l12.1-8.1l6,8.5l9,4.4l-4.5,37.9l5.1,18.5l-4.2,20.7l0.9-23.5l-16.9-41
	l-5.6-13.2l-5.6,2.7l-0.8-0.2l-16.1-4.4l41.6,90.9l-63.4-13.4l1.5-5.8l51.2,13.7L143.4,183l-5.6-59.2l24.9,52.3l-25.2-64.1L99.9,189
	l4.9,1.3l-1.4,4.2l2.4,0.2l-0.3,6.2l-4.1,2.2l-11.2-4.8l-10.7,4.9l-4.3-2.6l-0.2-3.5l-12.5,11.1L38,223.8l-12.5,3L1.7,247.4
	l213.3-0.1L207.4,44.6z M137.6,123.7l-2.2,56.2l-15.1,4.7l13.9-54.2L137.6,123.7z M105.2,187.6l26.1-51.4l-14.1,53.9L105.2,187.6z
	 M109.4,215.4l-4.2-6.4l2.3-2.5l2,0l-2.2,2.7L109.4,215.4z M112.5,215.4L112.5,215.4L112.5,215.4L112.5,215.4l-2.1,1.5v-7.8l0.8,2.7
	l6-21.5l1.6,0.3L112.5,215.4L112.5,215.4z M187.2,264.1c0.4-0.6,0.6-1.3,0.6-2.2c0-0.7-0.1-1.2-0.4-1.7s-0.6-0.8-1.1-1.1
	c-0.5-0.3-0.9-0.5-1.5-0.5c-0.5-0.1-1.2-0.1-1.9-0.1h-5.3v12.3h3.2v-4.5h1.5l3.3,4.5h3.9l-4.1-5.3
	C186.2,265.1,186.8,264.6,187.2,264.1z M184.4,263c-0.1,0.2-0.3,0.4-0.5,0.6c-0.2,0.2-0.5,0.3-0.9,0.3s-0.8,0.1-1.3,0.1h-1v-3.3h1.1
	c0.4,0,0.7,0,1,0c0.3,0,0.5,0.1,0.7,0.2c0.3,0.1,0.5,0.3,0.6,0.5c0.1,0.2,0.2,0.5,0.2,0.8C184.5,262.6,184.5,262.8,184.4,263z
	 M202.6,258.4h-3.7l-4.4,5.6v-5.6h-3.2v12.3h3.2v-4l0.7-0.9l3.7,4.9h3.9l-5.1-6.6L202.6,258.4z M211.9,263.6
	c-0.5-0.2-0.9-0.3-1.3-0.4c-0.4-0.1-0.9-0.2-1.3-0.3c-0.7-0.1-1.2-0.3-1.4-0.5c-0.2-0.2-0.4-0.4-0.4-0.7c0-0.2,0.1-0.4,0.2-0.6
	c0.2-0.2,0.3-0.3,0.6-0.4c0.2-0.1,0.5-0.2,0.8-0.2c0.3,0,0.5-0.1,0.8-0.1c0.7,0,1.5,0.1,2.2,0.4c0.7,0.3,1.3,0.6,1.8,1h0.3V259
	c-0.6-0.2-1.3-0.4-2.1-0.6c-0.8-0.2-1.6-0.2-2.4-0.2c-1.6,0-2.9,0.4-4,1.1c-1,0.7-1.5,1.7-1.5,2.8c0,0.9,0.2,1.6,0.7,2.2
	c0.5,0.6,1.2,1,2.2,1.4c0.5,0.1,0.9,0.3,1.5,0.4c0.5,0.1,1,0.2,1.5,0.3c0.4,0.1,0.8,0.3,1,0.5c0.2,0.2,0.3,0.4,0.3,0.7
	c0,0.3-0.1,0.5-0.2,0.7c-0.2,0.2-0.4,0.3-0.6,0.4c-0.2,0.1-0.5,0.1-0.8,0.2c-0.3,0-0.6,0.1-0.8,0.1c-0.7,0-1.5-0.1-2.3-0.4
	c-0.8-0.3-1.5-0.7-2.2-1.2h-0.3v3c0.7,0.3,1.4,0.5,2.1,0.7c0.8,0.2,1.6,0.3,2.7,0.3c1.8,0,3.2-0.4,4.2-1.1c1-0.8,1.5-1.7,1.5-3
	c0-0.9-0.2-1.5-0.7-2.1C213.5,264.3,212.8,263.9,211.9,263.6z M159.9,259.2c-0.4-0.3-0.9-0.5-1.4-0.6c-0.5-0.1-1.2-0.2-2-0.2h-5.2
	v12.3h3.2v-4h2c0.9,0,1.7-0.1,2.3-0.4c0.6-0.2,1.2-0.6,1.6-1.1c0.4-0.4,0.6-0.8,0.8-1.3c0.2-0.5,0.3-1.1,0.3-1.6
	c0-0.7-0.1-1.3-0.4-1.8C160.8,260,160.4,259.6,159.9,259.2z M158,263.3c-0.1,0.2-0.2,0.5-0.4,0.6c-0.2,0.2-0.5,0.3-0.9,0.4
	c-0.3,0.1-0.8,0.1-1.3,0.1h-0.9v-3.7h0.5c0.5,0,0.9,0,1.3,0c0.3,0,0.6,0.1,1,0.2c0.3,0.1,0.5,0.3,0.7,0.5c0.2,0.3,0.3,0.5,0.3,0.9
	C158.1,262.8,158.1,263.1,158,263.3z M167.3,258.4l-4.6,12.3h3.2l0.9-2.5h4.5l0.9,2.5h3.3l-4.5-12.3H167.3z M167.6,266l1.5-4.4
	l1.5,4.4H167.6z M90.2,263.6c-0.5-0.2-0.9-0.3-1.3-0.4c-0.4-0.1-0.9-0.2-1.3-0.3c-0.7-0.1-1.2-0.3-1.4-0.5c-0.2-0.2-0.4-0.4-0.4-0.7
	c0-0.2,0.1-0.4,0.2-0.6c0.2-0.2,0.3-0.3,0.6-0.4c0.2-0.1,0.5-0.2,0.8-0.2c0.3,0,0.5-0.1,0.8-0.1c0.7,0,1.5,0.1,2.2,0.4
	c0.7,0.3,1.3,0.6,1.8,1h0.3V259c-0.6-0.2-1.3-0.4-2.1-0.6s-1.6-0.2-2.4-0.2c-1.6,0-2.9,0.4-4,1.1c-1,0.7-1.5,1.7-1.5,2.8
	c0,0.9,0.2,1.6,0.7,2.2c0.5,0.6,1.2,1,2.2,1.4c0.5,0.1,0.9,0.3,1.5,0.4c0.5,0.1,1,0.2,1.5,0.3c0.4,0.1,0.8,0.3,1,0.5
	c0.2,0.2,0.3,0.4,0.3,0.7c0,0.3-0.1,0.5-0.2,0.7c-0.2,0.2-0.4,0.3-0.6,0.4c-0.2,0.1-0.5,0.1-0.8,0.2c-0.3,0-0.6,0.1-0.8,0.1
	c-0.7,0-1.5-0.1-2.3-0.4c-0.8-0.3-1.5-0.7-2.2-1.2h-0.3v3c0.7,0.3,1.4,0.5,2.1,0.7c0.8,0.2,1.6,0.3,2.7,0.3c1.8,0,3.2-0.4,4.2-1.1
	c1-0.8,1.5-1.7,1.5-3c0-0.9-0.2-1.5-0.7-2.1C91.8,264.3,91.1,263.9,90.2,263.6z M133.1,270.8h8.9v-2.4h-5.7v-3h5.3V263h-5.3v-2.1
	h5.7v-2.4h-8.9V270.8z M94.3,260.8h3.8v9.9h3.2v-9.9h3.8v-2.4H94.3V260.8z M119.9,260.8h3.8v9.9h3.2v-9.9h3.8v-2.4h-10.9V260.8z
	 M110.7,258.4l-4.5,12.3h3.2l0.9-2.5h4.5l0.9,2.5h3.3l-4.6-12.3H110.7z M111,266l1.5-4.4l1.5,4.4H111z"/>
</svg>
