<svg id="Layer_1" data-name="Layer 1" xmlns="http://www.w3.org/2000/svg" viewBox="0 0 31 23"><defs><style>.cls-1{fill:#bedbbc;}</style></defs><g id="Group_5" data-name="Group 5"><path id="Rectangle_5" data-name="Rectangle 5" class="cls-1" d="M2.5,0h26A2.5,2.5,0,0,1,31,2.5h0A2.5,2.5,0,0,1,28.5,5H2.5A2.5,2.5,0,0,1,0,2.5H0A2.5,2.5,0,0,1,2.5,0Z"/><path id="Rectangle_6" data-name="Rectangle 6" class="cls-1" d="M2.5,9h26A2.5,2.5,0,0,1,31,11.5h0A2.5,2.5,0,0,1,28.5,14H2.5A2.5,2.5,0,0,1,0,11.5H0A2.5,2.5,0,0,1,2.5,9Z"/><path id="Rectangle_7" data-name="Rectangle 7" class="cls-1" d="M2.5,18h26A2.5,2.5,0,0,1,31,20.5h0A2.5,2.5,0,0,1,28.5,23H2.5A2.5,2.5,0,0,1,0,20.5H0A2.5,2.5,0,0,1,2.5,18Z"/></g></svg>