<?xml version="1.0" encoding="utf-8"?>
<!-- Generator: Adobe Illustrator 25.0.0, SVG Export Plug-In . SVG Version: 6.00 Build 0)  -->
<svg version="1.1" id="Layer_1" xmlns="http://www.w3.org/2000/svg" xmlns:xlink="http://www.w3.org/1999/xlink" x="0px" y="0px"
	 viewBox="0 0 2880 3600" style="enable-background:new 0 0 2880 3600;" xml:space="preserve">
<g>
	<g>
		<path d="M1277.1,964.4c145.6,103.5,281.8,220.3,406.3,348.4c57.8,59.5,121.9,122.7,151.1,202.2c13.8,37.6,17.9,78.1,9.1,117.4
			c-8.5,37.9-27.6,72.6-51.3,103c-49.9,64.1-119.5,112.2-189.9,151.2c-73.3,40.6-151.9,71.1-232,95.2
			c-82.8,25-167.4,43.5-252.4,59.6c-94.6,17.9-189.9,32-285.6,42.4c-94.3,10.2-189.1,16.8-283.9,19.8c-48.5,1.5-97,2-145.5,1.6
			c-23.2-0.2-46.4-0.6-69.6-1.3c-19.5-0.5-39.3-0.5-58.3-5.1c-16.8-4.1-32.3-12-41-27.5c-0.1,1-0.3,2-0.4,3
			c118.8-117.2,258.6-211.1,407-286.5c159.1-80.8,327.9-140.4,498.9-190.5c99.3-29.1,199.4-55.1,299.7-80.5c3.1-0.8,1.8-5.6-1.3-4.8
			c-180.4,45.7-360.6,93.3-535.5,157.5c-159.7,58.6-315,131.3-456.6,226.2c-77.1,51.7-149.7,109.9-215.8,175.1
			c-0.8,0.8-0.9,2.1-0.4,3c16.6,29.5,54.2,33.4,84.7,34.5c49.5,1.8,99.1,2.3,148.6,1.9c98.1-0.8,196.1-5.4,293.8-14
			c96.9-8.5,193.4-20.8,289.3-36.9c90.4-15.2,180.6-33.1,269.2-56.7c82.4-21.9,163.7-49.3,240.6-86.4
			c74.2-35.8,147.1-80.6,205.7-139c54.2-54,97.7-125.4,91-204.6c-6.9-81.7-60.8-150.2-114.1-208.6c-122.3-134-258.8-255.7-404.2-364
			c-18.1-13.5-36.4-26.8-54.8-39.9C1277,958.2,1274.5,962.6,1277.1,964.4L1277.1,964.4z"/>
	</g>
</g>
</svg>
